<svg xmlns:dc="http://purl.org/dc/elements/1.1/" xmlns:cc="http://creativecommons.org/ns#" xmlns:rdf="http://www.w3.org/1999/02/22-rdf-syntax-ns#" xmlns:svg="http://www.w3.org/2000/svg" xmlns="http://www.w3.org/2000/svg" xmlns:xlink="http://www.w3.org/1999/xlink" id="svg101609" viewBox="0 0 1024 768" height="768px" width="1024px" version="1.1">
            
            <linearGradient spreadMethod="pad" y2="30%" x2="-10%" y1="120%" x1="30%" id="3d_gradient2-logo-3f0c751d-a35e-4a6f-9f33-7e25fe952669">
              <stop id="stop101590" stop-opacity="1" stop-color="#ffffff" offset="0%"></stop>
              <stop id="stop101592" stop-opacity="1" stop-color="#000000" offset="100%"></stop>
            </linearGradient>
            <linearGradient gradientTransform="rotate(-30)" spreadMethod="pad" y2="30%" x2="-10%" y1="120%" x1="30%" id="3d_gradient3-logo-3f0c751d-a35e-4a6f-9f33-7e25fe952669">
              <stop id="stop101595" stop-opacity="1" stop-color="#ffffff" offset="0%"></stop>
              <stop id="stop101597" stop-opacity="1" stop-color="#cccccc" offset="50%"></stop>
              <stop id="stop101599" stop-opacity="1" stop-color="#000000" offset="100%"></stop>
            </linearGradient>
            <g id="logo-group">
              <image xlink:href="" id="container" x="272" y="144" width="480" height="480" style="display: none;" transform="translate(0 0)"></image>
              <g id="logo-center" transform="translate(0 0)">
                <image xlink:href="" id="icon_container" x="0" y="0" style="display: none;"></image>
                <g id="slogan" style="font-style:normal;font-weight:400;font-size:32px;line-height:1;font-family:Roboto;font-variant-ligatures:none;text-align:center;text-anchor:middle" transform="translate(0 0)"></g>
                <g id="title" style="font-style:normal;font-weight:400;font-size:72px;line-height:1;font-family:'LIBRARY 3 AM';font-variant-ligatures:none;text-align:center;text-anchor:middle" transform="translate(0 0)">
                  <path id="path101618" style="font-style:normal;font-weight:400;font-size:72px;line-height:1;font-family:'LIBRARY 3 AM';font-variant-ligatures:none;text-align:center;text-anchor:middle" d="m 216.26056,-10.152 v -20.196 h 18.432 v 4.104 h -13.896 v 3.024 h 16.92 v -10.152 h -24.48 v 26.244 h 22.788 v 4.104 h -27.324 v -47.88 h 26.82 v 4.104 h -22.284 v 9.324 h 3.024 v -6.3 h 22.284 v -10.152 h -32.868 V 0 h 33.372 v -10.152 z" stroke-width="0" stroke-linejoin="miter" stroke-miterlimit="2" fill="#2a9579" stroke="#2a9579" transform="translate(0 300.05614) translate(274.1260175 63.19544) scale(0.77) translate(-205.67656 53.928)"></path>
                  <path id="path101620" style="font-style:normal;font-weight:400;font-size:72px;line-height:1;font-family:'LIBRARY 3 AM';font-variant-ligatures:none;text-align:center;text-anchor:middle" d="m 254.68494,-10.152 v -40.752 h 4.536 v 36.648 h 3.024 v -39.672 h -10.584 v 46.8 h 26.784 v 4.104 h -26.784 V 0 h 29.808 v -10.152 z" stroke-width="0" stroke-linejoin="miter" stroke-miterlimit="2" fill="#2a9579" stroke="#2a9579" transform="translate(0 300.05614) translate(309.5339901 63.19544) scale(0.77) translate(-251.66094 53.928)"></path>
                  <path id="path101622" style="font-style:normal;font-weight:400;font-size:72px;line-height:1;font-family:'LIBRARY 3 AM';font-variant-ligatures:none;text-align:center;text-anchor:middle" d="m 301.90119,-10.152 v -20.196 h 18.432 v 4.104 h -13.896 v 3.024 h 16.92 v -10.152 h -24.48 v 26.244 h 22.788 v 4.104 h -27.324 v -47.88 h 26.82 v 4.104 h -22.284 v 9.324 h 3.024 v -6.3 h 22.284 v -10.152 h -32.868 V 0 h 33.372 v -10.152 z" stroke-width="0" stroke-linejoin="miter" stroke-miterlimit="2" fill="#2a9579" stroke="#2a9579" transform="translate(0 300.05614) translate(340.06930259999996 63.19544) scale(0.77) translate(-291.31719 53.928)"></path>
                  <path id="path101624" style="font-style:normal;font-weight:400;font-size:72px;line-height:1;font-family:'LIBRARY 3 AM';font-variant-ligatures:none;text-align:center;text-anchor:middle" d="m 370.70956,-13.86 c -3.636,2.412 -7.524,4.464 -12.204,4.464 -8.064,0 -12.024,-6.336 -13.032,-13.248 h -3.06 c 1.152,8.604 6.264,16.272 16.092,16.272 4.284,0 7.92,-1.44 11.016,-3.204 l 2.016,3.852 c -4.248,2.34 -8.568,3.456 -13.32,3.456 -13.788,0 -20.592,-11.592 -20.592,-24.228 v -0.216 h 7.56 v -0.792 c 0,-8.424 4.536,-17.064 12.6,-17.064 5.112,0 7.596,1.584 11.34,4.248 l 5.04,-9.036 c -4.716,-3.528 -9.72,-5.364 -16.596,-5.364 -12.528,0 -20.268,9.684 -22.392,20.88 h 3.096 c 1.98,-9.612 8.532,-17.856 19.296,-17.856 4.932,0 8.856,1.008 12.6,3.276 l -2.088,3.744 c -2.952,-1.836 -5.76,-2.916 -10.296,-2.916 -9.324,0 -14.832,8.82 -15.516,17.856 h -7.596 c -0.036,0.72 -0.072,1.476 -0.072,2.232 v 1.008 c 0,15.012 8.64,27.252 23.616,27.252 7.092,0 12.6,-2.232 17.316,-5.364 z" stroke-width="0" stroke-linejoin="miter" stroke-miterlimit="2" fill="#2a9579" stroke="#2a9579" transform="translate(0 300.05614) translate(373.3982675 62.5856) scale(0.77) translate(-334.60156 54.72)"></path>
                  <path id="path101626" style="font-style:normal;font-weight:400;font-size:72px;line-height:1;font-family:'LIBRARY 3 AM';font-variant-ligatures:none;text-align:center;text-anchor:middle" d="m 402.53131,-53.928 v 50.904 h -4.536 v -50.904 h -17.1 v 10.152 h 9.54 V -46.8 h -6.516 v -4.104 h 11.052 V 0 h 10.584 v -50.904 h 11.016 v 4.104 h -6.48 v 3.024 h 9.504 v -10.152 z" stroke-width="0" stroke-linejoin="miter" stroke-miterlimit="2" fill="#2a9579" stroke="#2a9579" transform="translate(0 300.05614) translate(409.04445499999997 63.19544) scale(0.77) translate(-380.89531 53.928)"></path>
                  <path id="path101628" style="font-style:normal;font-weight:400;font-size:72px;line-height:1;font-family:'LIBRARY 3 AM';font-variant-ligatures:none;text-align:center;text-anchor:middle" d="m 448.16356,-53.928 h -18.612 V 0 h 10.584 v -24.3 l 17.82,24.3 h 12.888 l -19.62,-26.46 c 5.508,-0.792 8.712,-4.644 8.712,-10.368 0,-6.048 -4.392,-9.972 -11.232,-9.972 h -11.592 v 13.464 h 3.024 v -10.44 h 8.568 c 5.004,0 8.208,2.412 8.208,6.948 0,4.032 -1.908,7.596 -8.568,7.596 h -2.952 l 19.44,26.208 h -5.328 l -19.26,-26.208 h -3.132 v 26.208 h -4.536 v -47.88 h 15.588 c 9.864,0 16.308,5.4 16.308,14.076 0,5.4 -2.088,9.612 -6.624,12.276 l 1.764,2.412 c 5.04,-2.844 7.884,-8.136 7.884,-14.688 0,-9.576 -6.912,-17.1 -19.332,-17.1 z" stroke-width="0" stroke-linejoin="miter" stroke-miterlimit="2" fill="#2a9579" stroke="#2a9579" transform="translate(0 300.05614) translate(446.50976749999995 63.19544) scale(0.77) translate(-429.55156 53.928)"></path>
                  <path id="path101630" style="font-style:normal;font-weight:400;font-size:72px;line-height:1;font-family:'LIBRARY 3 AM';font-variant-ligatures:none;text-align:center;text-anchor:middle" d="m 507.07194,-53.964 v 3.132 c 10.044,2.988 14.616,13.464 14.616,23.832 0,12.312 -6.408,24.732 -20.664,24.732 -14.256,0 -20.664,-12.42 -20.664,-24.732 0,-11.844 5.94,-23.76 19.152,-24.66 v 7.2 c 0.468,-0.072 0.972,-0.108 1.512,-0.108 9.576,0 13.104,10.008 13.104,17.568 0,7.56 -3.492,17.604 -13.104,17.604 -9.612,0 -13.104,-10.044 -13.104,-17.604 0,-5.652 1.98,-12.744 7.056,-15.912 v -3.42 c -6.876,3.096 -10.08,11.448 -10.08,19.332 0,9.936 5.04,20.628 16.128,20.628 11.088,0 16.128,-10.692 16.128,-20.628 0,-9.432 -4.608,-19.584 -14.616,-20.52 v -7.128 c -0.504,-0.036 -1.008,-0.072 -1.512,-0.072 -15.12,0 -23.688,12.6 -23.688,27.72 0,15.12 8.568,27.756 23.688,27.756 15.12,0 23.688,-12.636 23.688,-27.756 0,-12.96 -6.3,-24.048 -17.64,-26.964 z" stroke-width="0" stroke-linejoin="miter" stroke-miterlimit="2" fill="#2a9579" stroke="#2a9579" transform="translate(0 300.05614) translate(483.30374009999997 62.5856) scale(0.77) translate(-477.33594 54.72)"></path>
                  <path id="path101632" style="font-style:normal;font-weight:400;font-size:72px;line-height:1;font-family:'LIBRARY 3 AM';font-variant-ligatures:none;text-align:center;text-anchor:middle" d="m 595.53406,-53.928 v 20.52 h -27.396 v -17.496 h 4.536 v 13.392 h 3.024 v -16.416 h -10.584 v 23.544 h 33.444 v -20.52 h 4.536 v 47.88 h -4.536 V -26.28 h -33.444 V 0 h 10.584 v -19.152 h -3.024 v 16.128 h -4.536 v -20.232 h 27.396 V 0 h 10.584 v -53.928 z" stroke-width="0" stroke-linejoin="miter" stroke-miterlimit="2" fill="#bad741" stroke="#bad741" transform="translate(0 300.05614) translate(550.8928925 63.19544) scale(0.77) translate(-565.11406 53.928)"></path>
                  <path id="path101634" style="font-style:normal;font-weight:400;font-size:72px;line-height:1;font-family:'LIBRARY 3 AM';font-variant-ligatures:none;text-align:center;text-anchor:middle" d="m 647.55631,-53.964 v 3.132 c 10.044,2.988 14.616,13.464 14.616,23.832 0,12.312 -6.408,24.732 -20.664,24.732 -14.256,0 -20.664,-12.42 -20.664,-24.732 0,-11.844 5.94,-23.76 19.152,-24.66 v 7.2 c 0.468,-0.072 0.972,-0.108 1.512,-0.108 9.576,0 13.104,10.008 13.104,17.568 0,7.56 -3.492,17.604 -13.104,17.604 -9.612,0 -13.104,-10.044 -13.104,-17.604 0,-5.652 1.98,-12.744 7.056,-15.912 v -3.42 c -6.876,3.096 -10.08,11.448 -10.08,19.332 0,9.936 5.04,20.628 16.128,20.628 11.088,0 16.128,-10.692 16.128,-20.628 0,-9.432 -4.608,-19.584 -14.616,-20.52 v -7.128 c -0.504,-0.036 -1.008,-0.072 -1.512,-0.072 -15.12,0 -23.688,12.6 -23.688,27.72 0,15.12 8.568,27.756 23.688,27.756 15.12,0 23.688,-12.636 23.688,-27.756 0,-12.96 -6.3,-24.048 -17.64,-26.964 z" stroke-width="0" stroke-linejoin="miter" stroke-miterlimit="2" fill="#bad741" stroke="#bad741" transform="translate(0 300.05614) translate(591.4767049999999 62.5856) scale(0.77) translate(-617.82031 54.72)"></path>
                  <path id="path101636" style="font-style:normal;font-weight:400;font-size:72px;line-height:1;font-family:'LIBRARY 3 AM';font-variant-ligatures:none;text-align:center;text-anchor:middle" d="M 716.25894,-26.676 V -29.7 h -19.908 v 10.152 h 16.884 v 12.924 c -4.572,2.88 -9.612,4.356 -15.336,4.356 -14.148,0 -20.664,-11.952 -20.664,-24.732 v -0.504 c 0,-11.916 7.02,-24.192 20.232,-24.192 4.968,0 8.856,1.008 12.636,3.276 l -2.088,3.744 c -2.988,-1.836 -5.796,-2.916 -10.332,-2.916 -10.26,0 -15.912,10.296 -15.912,20.088 V -27 c 0,10.404 5.04,20.628 16.02,20.628 3.492,0 6.696,-0.576 9.36,-1.8 l 1.548,-0.72 v -6.588 h -3.024 v 4.644 c -1.872,0.828 -4.428,1.44 -7.884,1.44 -9.576,0 -12.996,-9.576 -12.996,-17.604 v -0.504 c 0,-7.632 4.176,-17.064 12.888,-17.064 5.148,0 7.632,1.584 11.376,4.248 l 5.004,-9.036 c -4.716,-3.528 -9.684,-5.364 -16.596,-5.364 -14.832,0 -23.256,13.428 -23.256,27.216 V -27 c 0,15.12 8.28,27.756 23.688,27.756 8.928,0 14.904,-3.312 18.36,-5.76 v -17.568 h -16.884 v -4.104 z" stroke-width="0" stroke-linejoin="miter" stroke-miterlimit="2" fill="#bad741" stroke="#bad741" transform="translate(0 300.05614) translate(634.8974901 62.5856) scale(0.77) translate(-674.21094 54.72)"></path>
                  <path id="path101638" style="font-style:normal;font-weight:400;font-size:72px;line-height:1;font-family:'LIBRARY 3 AM';font-variant-ligatures:none;text-align:center;text-anchor:middle" d="m 753.60556,-53.928 h -10.584 l -12.132,33.372 h 27.072 l -9.648,-26.532 -7.056,19.404 h 3.204 l 3.852,-10.548 5.328,14.652 h -18.432 l 9.936,-27.324 h 6.336 l 17.424,47.88 h -4.608 l -4.86,-13.428 h -30.06 L 723.40156,0 h 11.016 l 3.384,-9.324 h -3.204 l -2.304,6.3 h -4.572 l 3.78,-10.404 h 25.812 l 4.86,13.428 h 11.052 z" stroke-width="0" stroke-linejoin="miter" stroke-miterlimit="2" fill="#bad741" stroke="#bad741" transform="translate(0 300.05614) translate(672.7742675000001 63.19544) scale(0.77) translate(-723.40156 53.928)"></path>
                  <path id="path101640" style="font-style:normal;font-weight:400;font-size:72px;line-height:1;font-family:'LIBRARY 3 AM';font-variant-ligatures:none;text-align:center;text-anchor:middle" d="m 800.85106,-53.928 h -18.612 V 0 h 10.584 v -24.3 l 17.82,24.3 h 12.888 l -19.62,-26.46 c 5.508,-0.792 8.712,-4.644 8.712,-10.368 0,-6.048 -4.392,-9.972 -11.232,-9.972 h -11.592 v 13.464 h 3.024 v -10.44 h 8.568 c 5.004,0 8.208,2.412 8.208,6.948 0,4.032 -1.908,7.596 -8.568,7.596 h -2.952 l 19.44,26.208 h -5.328 l -19.26,-26.208 h -3.132 v 26.208 h -4.536 v -47.88 h 15.588 c 9.864,0 16.308,5.4 16.308,14.076 0,5.4 -2.088,9.612 -6.624,12.276 l 1.764,2.412 c 5.04,-2.844 7.884,-8.136 7.884,-14.688 0,-9.576 -6.912,-17.1 -19.332,-17.1 z" stroke-width="0" stroke-linejoin="miter" stroke-miterlimit="2" fill="#bad741" stroke="#bad741" transform="translate(0 300.05614) translate(718.0791425 63.19544) scale(0.77) translate(-782.23906 53.928)"></path>
                </g>
                <image xlink:href="" id="icon" x="0" y="0" style="display: none;"></image>
              </g>
            </g>
          </svg>